HIERARCHY
ROOT Hips
{
	OFFSET 0.000000 83.214638 0.000000
	CHANNELS 6 Xposition Yposition Zposition Xrotation Yrotation Zrotation
	JOINT Pelvis
	{
		OFFSET 0.000000 0.000000 0.000000
		CHANNELS 3 Xrotation Yrotation Zrotation
		JOINT LeftUpLeg
		{
			OFFSET 8.479700 -4.795502 -0.379100
			CHANNELS 3 Xrotation Yrotation Zrotation
			JOINT LeftLeg
			{
				OFFSET 0.024144 -32.555107 0.112900
				CHANNELS 3 Xrotation Yrotation Zrotation
				JOINT LeftFoot
				{
					OFFSET -0.024144 -32.638630 -3.012600
					CHANNELS 3 Xrotation Yrotation Zrotation
					JOINT LeftToeBase
					{
						OFFSET 0.970200 -13.225400 11.864200
						CHANNELS 3 Xrotation Yrotation Zrotation
						End Site
						{
							OFFSET 0.000000 12.319262 0.000000
						}
					}
					JOINT LFootTongue
					{
						OFFSET 1.142400 -1.059800 6.665200
						CHANNELS 3 Xrotation Yrotation Zrotation
						End Site
						{
							OFFSET 0.000000 12.319262 0.000000
						}
					}
				}
				JOINT LeftPantLeg
				{
					OFFSET 0.918482 -16.533964 -2.284700
					CHANNELS 3 Xrotation Yrotation Zrotation
					End Site
					{
						OFFSET 0.350399 24.744368 0.000000
					}
				}
			}
		}
		JOINT RightUpLeg
		{
			OFFSET -8.479700 -4.795502 -0.379100
			CHANNELS 3 Xrotation Yrotation Zrotation
			JOINT RightLeg
			{
				OFFSET -0.023144 -32.555092 0.112900
				CHANNELS 3 Xrotation Yrotation Zrotation
				JOINT RightFoot
				{
					OFFSET 0.023144 -32.638641 -3.012700
					CHANNELS 3 Xrotation Yrotation Zrotation
					JOINT RightToeBase
					{
						OFFSET -0.970200 -13.225400 11.864200
						CHANNELS 3 Xrotation Yrotation Zrotation
						End Site
						{
							OFFSET 0.000000 12.319244 0.000000
						}
					}
					JOINT RFootTongue
					{
						OFFSET -1.142200 -1.059800 6.665200
						CHANNELS 3 Xrotation Yrotation Zrotation
						End Site
						{
							OFFSET 0.000000 12.319243 0.000000
						}
					}
				}
				JOINT RightPantLeg
				{
					OFFSET -0.919482 -16.533978 -2.284800
					CHANNELS 3 Xrotation Yrotation Zrotation
					End Site
					{
						OFFSET -0.350400 24.744419 0.000000
					}
				}
			}
		}
	}
	JOINT Spine
	{
		OFFSET 0.000000 7.722000 1.166200
		CHANNELS 3 Xrotation Yrotation Zrotation
		JOINT Spine1
		{
			OFFSET 0.000000 12.024101 0.248800
			CHANNELS 3 Xrotation Yrotation Zrotation
			JOINT Spine2
			{
				OFFSET 0.000000 11.502998 -0.491200
				CHANNELS 3 Xrotation Yrotation Zrotation
				JOINT Neck
				{
					OFFSET 0.000000 18.430702 -3.123100
					CHANNELS 3 Xrotation Yrotation Zrotation
					JOINT Head
					{
						OFFSET 0.000000 9.051102 1.034000
						CHANNELS 3 Xrotation Yrotation Zrotation
						JOINT HairB
						{
							OFFSET 0.208400 24.786102 24.822300
							CHANNELS 3 Xrotation Yrotation Zrotation
							End Site
							{
								OFFSET 0.000000 32.263779 0.000000
							}
						}
						JOINT HairA
						{
							OFFSET -7.081100 24.428299 23.196600
							CHANNELS 3 Xrotation Yrotation Zrotation
							End Site
							{
								OFFSET 0.000000 32.263779 0.000000
							}
						}
						JOINT Hat
						{
							OFFSET 16.728800 15.048294 -15.439601
							CHANNELS 3 Xrotation Yrotation Zrotation
							End Site
							{
								OFFSET 0.000000 32.263779 0.000000
							}
						}
					}
				}
				JOINT LeftShoulder
				{
					OFFSET 6.197800 13.665199 -4.064700
					CHANNELS 3 Xrotation Yrotation Zrotation
					JOINT LeftArm
					{
						OFFSET 7.778100 -0.187103 -1.709300
						CHANNELS 3 Xrotation Yrotation Zrotation
						JOINT LeftForeArm
						{
							OFFSET 22.049376 0.000000 0.000000
							CHANNELS 3 Xrotation Yrotation Zrotation
							JOINT LeftHand
							{
								OFFSET 23.009392 0.000000 0.000000
								CHANNELS 3 Xrotation Yrotation Zrotation
								JOINT LeftHandThumb1
								{
									OFFSET 3.507191 -2.063065 3.133727
									CHANNELS 3 Xrotation Yrotation Zrotation
									JOINT LeftHandThumb2
									{
										OFFSET 3.101337 -1.790558 1.790558
										CHANNELS 3 Xrotation Yrotation Zrotation
										JOINT LeftHandThumb3
										{
											OFFSET 3.058640 -1.765907 1.765906
											CHANNELS 3 Xrotation Yrotation Zrotation
											End Site
											{
												OFFSET -0.415260 3.926476 -0.049563
											}
										}
									}
								}
								JOINT LeftHandIndex1
								{
									OFFSET 11.334419 -0.901459 3.706815
									CHANNELS 3 Xrotation Yrotation Zrotation
									JOINT LeftHandIndex2
									{
										OFFSET 3.283112 0.000000 0.000000
										CHANNELS 3 Xrotation Yrotation Zrotation
										JOINT LeftHandIndex3
										{
											OFFSET 3.323853 0.000000 0.000000
											CHANNELS 3 Xrotation Yrotation Zrotation
											End Site
											{
												OFFSET -1.135597 3.097809 0.402452
											}
										}
									}
								}
								JOINT LeftHandMiddle1
								{
									OFFSET 11.335861 0.000000 0.000000
									CHANNELS 3 Xrotation Yrotation Zrotation
									JOINT LeftHandMiddle2
									{
										OFFSET 3.410492 0.000000 0.000000
										CHANNELS 3 Xrotation Yrotation Zrotation
										JOINT LeftHandMiddle3
										{
											OFFSET 3.312172 0.000000 0.000000
											CHANNELS 3 Xrotation Yrotation Zrotation
											End Site
											{
												OFFSET -1.150200 3.080154 0.400270
											}
										}
									}
								}
								JOINT LeftHandRing1
								{
									OFFSET 11.514786 -0.013176 -3.003090
									CHANNELS 3 Xrotation Yrotation Zrotation
									JOINT LeftHandRing2
									{
										OFFSET 3.053307 0.000000 0.000000
										CHANNELS 3 Xrotation Yrotation Zrotation
										JOINT LeftHandRing3
										{
											OFFSET 3.295807 0.000000 0.000000
											CHANNELS 3 Xrotation Yrotation Zrotation
											End Site
											{
												OFFSET -1.281006 3.013344 0.375733
											}
										}
									}
								}
								JOINT LeftHandPinky1
								{
									OFFSET 10.518692 -0.960396 -5.730441
									CHANNELS 3 Xrotation Yrotation Zrotation
									JOINT LeftHandPinky2
									{
										OFFSET 2.861649 0.000000 0.000000
										CHANNELS 3 Xrotation Yrotation Zrotation
										JOINT LeftHandPinky3
										{
											OFFSET 2.863380 0.000000 0.000000
											CHANNELS 3 Xrotation Yrotation Zrotation
											End Site
											{
												OFFSET -0.843597 2.711159 0.369971
											}
										}
									}
								}
							}
							JOINT LSleeve
							{
								OFFSET 6.676277 -0.344902 -1.011730
								CHANNELS 3 Xrotation Yrotation Zrotation
								End Site
								{
									OFFSET 0.000000 14.885353 0.000000
								}
							}
						}
					}
				}
				JOINT RightShoulder
				{
					OFFSET -6.197800 13.665199 -4.064700
					CHANNELS 3 Xrotation Yrotation Zrotation
					JOINT RightArm
					{
						OFFSET -7.778100 -0.187103 -1.709300
						CHANNELS 3 Xrotation Yrotation Zrotation
						JOINT RightForeArm
						{
							OFFSET -22.049376 0.000000 0.000000
							CHANNELS 3 Xrotation Yrotation Zrotation
							JOINT RightHand
							{
								OFFSET -23.009392 0.000000 0.000000
								CHANNELS 3 Xrotation Yrotation Zrotation
								JOINT RightHandThumb1
								{
									OFFSET -3.507191 -2.063065 3.133727
									CHANNELS 3 Xrotation Yrotation Zrotation
									JOINT RightHandThumb2
									{
										OFFSET -3.101337 -1.790558 1.790558
										CHANNELS 3 Xrotation Yrotation Zrotation
										JOINT RightHandThumb3
										{
											OFFSET -3.058640 -1.765907 1.765906
											CHANNELS 3 Xrotation Yrotation Zrotation
											End Site
											{
												OFFSET 0.415260 3.926476 -0.049563
											}
										}
									}
								}
								JOINT RightHandIndex1
								{
									OFFSET -11.334419 -0.901459 3.706815
									CHANNELS 3 Xrotation Yrotation Zrotation
									JOINT RightHandIndex2
									{
										OFFSET -3.283112 0.000000 0.000000
										CHANNELS 3 Xrotation Yrotation Zrotation
										JOINT RightHandIndex3
										{
											OFFSET -3.323853 0.000000 0.000000
											CHANNELS 3 Xrotation Yrotation Zrotation
											End Site
											{
												OFFSET 1.135597 3.097809 0.402452
											}
										}
									}
								}
								JOINT RightHandMiddle1
								{
									OFFSET -11.335861 0.000000 0.000000
									CHANNELS 3 Xrotation Yrotation Zrotation
									JOINT RightHandMiddle2
									{
										OFFSET -3.410492 0.000000 0.000000
										CHANNELS 3 Xrotation Yrotation Zrotation
										JOINT RightHandMiddle3
										{
											OFFSET -3.312172 0.000000 0.000000
											CHANNELS 3 Xrotation Yrotation Zrotation
											End Site
											{
												OFFSET 1.150200 3.080154 0.400270
											}
										}
									}
								}
								JOINT RightHandRing1
								{
									OFFSET -11.514786 -0.013176 -3.003090
									CHANNELS 3 Xrotation Yrotation Zrotation
									JOINT RightHandRing2
									{
										OFFSET -3.053307 0.000000 0.000000
										CHANNELS 3 Xrotation Yrotation Zrotation
										JOINT RightHandRing3
										{
											OFFSET -3.295807 0.000000 0.000000
											CHANNELS 3 Xrotation Yrotation Zrotation
											End Site
											{
												OFFSET 1.281006 3.013344 0.375733
											}
										}
									}
								}
								JOINT RightHandPinky1
								{
									OFFSET -10.518692 -0.960396 -5.730441
									CHANNELS 3 Xrotation Yrotation Zrotation
									JOINT RightHandPinky2
									{
										OFFSET -2.861649 0.000000 0.000000
										CHANNELS 3 Xrotation Yrotation Zrotation
										JOINT RightHandPinky3
										{
											OFFSET -2.863380 0.000000 0.000000
											CHANNELS 3 Xrotation Yrotation Zrotation
											End Site
											{
												OFFSET 0.843597 2.711159 0.369971
											}
										}
									}
								}
							}
							JOINT RSleeve
							{
								OFFSET -6.676277 -0.344902 -1.011730
								CHANNELS 3 Xrotation Yrotation Zrotation
								End Site
								{
									OFFSET 0.000000 14.885353 0.000000
								}
							}
						}
					}
				}
				JOINT Backpack
				{
					OFFSET 0.000000 -2.471497 36.677502
					CHANNELS 3 Xrotation Yrotation Zrotation
					End Site
					{
						OFFSET 0.000000 20.427315 0.000000
					}
				}
				JOINT Hood
				{
					OFFSET 0.000000 18.754097 -10.431000
					CHANNELS 3 Xrotation Yrotation Zrotation
					JOINT Hood1
					{
						OFFSET 0.000000 -5.011002 -7.685901
						CHANNELS 3 Xrotation Yrotation Zrotation
						End Site
						{
							OFFSET 0.000000 9.175140 0.000000
						}
					}
				}
				JOINT LHoodieString
				{
					OFFSET 5.250500 16.397697 3.089900
					CHANNELS 3 Xrotation Yrotation Zrotation
					JOINT LHoodieString1
					{
						OFFSET 0.257700 -6.364304 3.694600
						CHANNELS 3 Xrotation Yrotation Zrotation
						JOINT LHoodieString2
						{
							OFFSET 0.000000 -9.643799 2.679100
							CHANNELS 3 Xrotation Yrotation Zrotation
							End Site
							{
								OFFSET 0.000000 10.009018 0.000000
							}
						}
					}
				}
				JOINT RHoodieString
				{
					OFFSET -5.250500 16.397697 3.089900
					CHANNELS 3 Xrotation Yrotation Zrotation
					JOINT RHoodieString1
					{
						OFFSET -0.257700 -6.364304 3.694600
						CHANNELS 3 Xrotation Yrotation Zrotation
						JOINT RHoodieString2
						{
							OFFSET 0.000000 -9.643799 2.679100
							CHANNELS 3 Xrotation Yrotation Zrotation
							End Site
							{
								OFFSET 0.000000 10.009018 0.000000
							}
						}
					}
				}
			}
			JOINT LBackpack_Strap
			{
				OFFSET 15.223200 -7.719803 -6.610900
				CHANNELS 3 Xrotation Yrotation Zrotation
				End Site
				{
					OFFSET 0.000000 16.040596 0.000000
				}
			}
			JOINT RBackpack_Strap
			{
				OFFSET -15.223000 -7.719803 -6.610900
				CHANNELS 3 Xrotation Yrotation Zrotation
				End Site
				{
					OFFSET 0.000000 16.040596 0.000000
				}
			}
		}
	}
	JOINT BoyFacialAnim_Joint
	{
		OFFSET 1.000000 -82.208099 -1.550900
		CHANNELS 3 Xrotation Yrotation Zrotation
		End Site
		{
			OFFSET 0.000000 30.012791 0.000000
		}
	}
}
MOTION
Frames: 5
Frame Time: 0.016667
0.087392 75.137901 -0.099003 -1.735339 -17.054053 -1.910117 0.000000 -0.000000 0.000000 -37.138051 17.622361 14.940001 49.864288 0.504447 8.294480 -13.712620 1.147885 -7.898502 -0.000000 -0.000000 -0.000000 -0.000000 -0.000000 -0.000000 -0.000000 -0.000000 -0.000000 -31.862856 -22.685247 -14.578077 48.548059 -2.551374 -10.164208 -17.116101 -2.213729 11.929757 0.000000 -0.000000 -0.000000 0.000000 -0.000000 -0.000000 -0.000002 -0.000001 -0.000000 3.883742 2.398638 -0.399838 2.929113 2.056186 -0.138334 2.894090 2.112998 -0.161224 1.137080 0.245401 5.249917 -1.998748 7.430613 1.905182 0.000000 0.000000 0.000000 0.000000 0.000000 0.000000 0.000000 0.000000 0.000000 1.375475 -4.867615 21.431201 -66.234277 -43.614859 -65.822034 0.000000 -37.698365 0.000008 -66.348574 -13.253386 -9.215224 22.600985 -28.107328 -14.151500 29.406854 28.726485 -29.411764 0.000003 -0.000003 0.000001 0.797674 3.221926 -27.804730 0.799582 3.225537 -27.838610 0.000000 0.000000 -0.000000 0.796764 3.220232 -27.788696 0.800474 3.227236 -27.854650 0.000003 0.000001 0.000000 0.797685 3.221917 -27.804734 0.799562 3.225534 -27.838615 -0.000002 0.000000 -0.000000 2.684949 6.814121 -27.459483 0.809038 -0.835552 -28.291851 0.000000 0.000001 -0.000002 0.000001 0.000001 -0.000000 0.445409 -0.777910 -3.588725 -96.770714 65.301130 91.341786 0.000000 28.227451 0.000004 -31.535697 -1.128070 -3.934974 40.606608 -3.110582 26.124227 -37.849480 -44.265025 -46.874960 -0.000000 0.000002 0.000001 3.635358 -6.111016 61.464469 7.728640 -6.904478 96.464456 -0.000000 -0.000000 0.000005 3.635347 -6.111005 61.464456 7.728627 -6.904474 96.464456 0.000002 0.000001 0.000002 3.635341 -6.110987 61.464456 7.728613 -6.904482 96.464456 -0.000003 0.000000 0.000002 3.635346 -6.110989 61.464469 7.728653 -6.904486 96.464435 0.000001 -0.000003 -0.000002 -0.000002 -0.000000 0.000000 -0.000000 0.000000 0.000000 -0.000000 0.000000 0.000000 -0.000000 0.000000 0.000000 -0.000000 0.000000 0.000000 -0.000000 0.000000 0.000000 -0.000000 0.000000 -0.000000 -0.000000 0.000000 0.000000 -0.000000 0.000000 0.000000 -0.000000 0.000000 -0.000000 0.000000 0.000000 -0.000000 0.000000 0.000000 -0.000000 0.000000 -0.000000 0.000000 
0.092757 75.146156 -0.103618 -1.679637 -17.014696 -1.930697 0.000000 -0.000001 0.000000 -37.222332 17.673459 14.921757 49.838593 0.455984 8.419928 -13.686217 1.151175 -7.918442 -0.000000 -0.000000 -0.000000 -0.000000 -0.000000 -0.000000 -0.000001 -0.000000 -0.000001 -31.792147 -22.508977 -14.410183 48.453482 -2.794564 -10.163389 -17.062800 -2.230869 12.036137 0.000000 0.000002 -0.000000 0.000000 0.000002 -0.000000 0.000001 -0.000003 0.000000 3.848152 2.379543 -0.413054 2.899331 2.043581 -0.147449 2.864487 2.099785 -0.170384 1.085837 0.256949 5.236186 -1.804758 7.498500 2.008299 0.000000 -0.000000 0.000000 0.000000 -0.000000 0.000000 0.000000 -0.000000 0.000000 1.287690 -4.591926 21.372331 -66.225938 -43.832783 -66.089580 -0.000002 -37.650100 -0.000008 -66.346299 -13.265072 -9.206525 22.601002 -28.107318 -14.151460 29.406860 28.726492 -29.411792 -0.000000 0.000001 0.000001 0.797661 3.221946 -27.804710 0.799599 3.225528 -27.838613 -0.000003 0.000000 -0.000000 0.796756 3.220240 -27.788691 0.800523 3.227225 -27.854645 0.000002 0.000000 -0.000003 0.797661 3.221937 -27.804715 0.799589 3.225529 -27.838613 -0.000001 0.000000 -0.000000 2.684962 6.814123 -27.459480 0.809055 -0.835561 -28.291858 0.000001 0.000001 0.000002 0.000001 -0.000003 -0.000001 0.432491 -0.830613 -3.627957 -97.091767 65.466182 91.848429 0.000002 28.156147 0.000002 -31.844644 -1.022900 -3.997960 40.606608 -3.110582 26.124227 -37.849483 -44.265032 -46.874963 0.000002 -0.000002 -0.000000 3.635353 -6.111020 61.464469 7.728637 -6.904472 96.464442 0.000001 -0.000001 0.000005 3.635339 -6.111008 61.464456 7.728630 -6.904474 96.464456 -0.000000 -0.000001 0.000001 3.635337 -6.110990 61.464449 7.728610 -6.904485 96.464456 -0.000006 -0.000001 0.000000 3.635339 -6.110989 61.464469 7.728654 -6.904490 96.464442 0.000002 0.000000 0.000000 0.000000 -0.000000 0.000000 -0.000000 0.000000 0.000000 -0.000000 0.000000 0.000000 -0.000000 0.000000 0.000000 -0.000000 0.000000 0.000000 -0.000000 0.000000 0.000000 -0.000000 0.000000 0.000000 -0.000000 0.000000 0.000000 -0.000000 0.000000 0.000000 -0.000000 0.000000 0.000000 0.000000 -0.000000 -0.000000 0.000000 -0.000000 -0.000000 0.000000 -0.000001 0.000000 
0.097895 75.153839 -0.111748 -1.626069 -16.971355 -1.946286 -0.000000 -0.000000 -0.000000 -37.303201 17.724764 14.890212 49.808014 0.411025 8.554531 -13.653727 1.155853 -7.943151 -0.000000 0.000000 -0.000000 -0.000000 0.000000 0.000000 -0.000000 -0.000000 -0.000001 -31.726225 -22.325873 -14.246042 48.363169 -3.055568 -10.162308 -17.008511 -2.246857 12.145278 -0.000000 0.000000 0.000000 -0.000000 0.000000 0.000000 -0.000000 0.000001 -0.000000 3.801738 2.351500 -0.432861 2.860569 2.025401 -0.161203 2.825894 2.080955 -0.184224 1.012363 0.275948 5.218361 -1.628341 7.575837 2.118156 0.000000 -0.000000 -0.000000 0.000000 -0.000000 -0.000000 0.000000 -0.000000 -0.000000 1.196433 -4.307699 21.316484 -66.220310 -44.104710 -66.348758 -0.000003 -37.562349 0.000001 -66.391365 -13.293681 -9.237443 22.601002 -28.107323 -14.151487 29.406850 28.726498 -29.411771 0.000000 -0.000001 -0.000001 0.797687 3.221934 -27.804729 0.799582 3.225530 -27.838615 0.000002 -0.000001 -0.000002 0.796783 3.220222 -27.788696 0.800498 3.227236 -27.854650 0.000000 -0.000001 -0.000003 0.797681 3.221930 -27.804742 0.799595 3.225522 -27.838606 -0.000000 0.000000 -0.000000 2.684957 6.814123 -27.459480 0.809052 -0.835555 -28.291876 0.000001 0.000000 -0.000000 -0.000000 -0.000003 -0.000002 0.420648 -0.879266 -3.679278 -97.395670 65.635359 92.333393 -0.000001 28.079234 0.000004 -32.174825 -0.927882 -4.091888 40.606612 -3.110583 26.124230 -37.849480 -44.265025 -46.874960 0.000001 0.000003 0.000002 3.635355 -6.111017 61.464469 7.728637 -6.904475 96.464449 -0.000003 0.000002 0.000006 3.635343 -6.111006 61.464456 7.728628 -6.904473 96.464456 -0.000004 0.000001 -0.000000 3.635344 -6.110989 61.464456 7.728609 -6.904485 96.464456 0.000003 0.000002 0.000004 3.635343 -6.110989 61.464469 7.728657 -6.904488 96.464435 0.000002 -0.000003 -0.000002 0.000000 -0.000001 -0.000000 0.000000 -0.000001 0.000000 0.000000 -0.000001 0.000000 0.000000 -0.000001 0.000000 0.000000 -0.000001 0.000000 0.000000 -0.000001 0.000000 0.000000 -0.000001 0.000000 0.000000 -0.000001 0.000000 0.000000 -0.000001 0.000000 0.000000 -0.000001 0.000000 0.000000 -0.000000 -0.000000 0.000000 -0.000000 -0.000000 -0.000000 -0.000000 -0.000000 
0.102666 75.161667 -0.121246 -1.577819 -16.923583 -1.963680 0.000000 -0.000001 -0.000000 -37.379057 17.771457 14.860021 49.777217 0.361840 8.682640 -13.619431 1.161250 -7.964083 -0.000000 0.000000 -0.000000 -0.000000 0.000000 0.000000 -0.000001 0.000000 -0.000000 -31.655526 -22.143728 -14.081594 48.272270 -3.322857 -10.161050 -16.953165 -2.264239 12.254586 -0.000000 0.000000 0.000000 -0.000000 0.000000 0.000000 0.000001 0.000001 0.000001 3.753244 2.324761 -0.447937 2.820241 2.007302 -0.173256 2.785800 2.062072 -0.196306 0.943601 0.291476 5.199657 -1.444414 7.647643 2.241822 -0.000000 -0.000000 -0.000000 -0.000000 -0.000000 -0.000000 -0.000000 -0.000000 -0.000000 1.103779 -4.021742 21.257210 -66.219183 -44.417010 -66.594706 -0.000011 -37.422258 -0.000009 -66.480540 -13.342002 -9.321758 22.601016 -28.107347 -14.151481 29.406847 28.726498 -29.411775 0.000003 -0.000002 -0.000001 0.797680 3.221929 -27.804734 0.799606 3.225526 -27.838605 -0.000001 -0.000001 -0.000002 0.796787 3.220212 -27.788701 0.800510 3.227218 -27.854645 0.000003 0.000000 -0.000003 0.797682 3.221915 -27.804730 0.799604 3.225525 -27.838628 -0.000002 0.000001 -0.000004 2.684971 6.814103 -27.459488 0.809072 -0.835565 -28.291863 -0.000000 -0.000000 -0.000000 0.000001 -0.000001 -0.000002 0.410449 -0.920573 -3.746361 -97.673618 65.806578 92.793372 -0.000006 28.006419 0.000012 -32.526327 -0.855764 -4.208739 40.606615 -3.110581 26.124229 -37.849480 -44.265025 -46.874967 -0.000000 0.000003 0.000001 3.635355 -6.111017 61.464469 7.728641 -6.904475 96.464449 -0.000002 -0.000002 0.000002 3.635344 -6.111009 61.464449 7.728631 -6.904476 96.464462 -0.000000 0.000001 -0.000000 3.635343 -6.110990 61.464456 7.728617 -6.904485 96.464462 -0.000001 -0.000001 0.000000 3.635337 -6.110989 61.464469 7.728660 -6.904487 96.464435 -0.000003 -0.000000 -0.000002 -0.000002 -0.000000 0.000000 0.000001 0.000001 -0.000000 0.000001 0.000001 -0.000000 0.000001 0.000001 -0.000000 0.000001 0.000001 -0.000000 0.000001 0.000001 0.000000 0.000001 0.000001 0.000000 0.000001 0.000001 -0.000000 0.000001 0.000001 0.000000 0.000001 0.000001 0.000000 0.000000 0.000000 0.000000 0.000000 0.000000 0.000000 0.000000 -0.000001 -0.000000 
0.106207 75.170906 -0.129155 -1.538630 -16.876037 -1.980339 -0.000000 0.000001 -0.000000 -37.435386 17.810900 14.819477 49.738629 0.324161 8.812074 -13.583867 1.167809 -7.992352 0.000000 0.000000 -0.000000 0.000000 0.000000 -0.000000 -0.000000 0.000000 -0.000000 -31.582778 -21.983299 -13.933488 48.182029 -3.570597 -10.160045 -16.901081 -2.275757 12.354577 0.000000 -0.000000 0.000000 0.000000 -0.000000 0.000000 -0.000001 0.000001 -0.000000 3.711202 2.296551 -0.466553 2.785399 1.989158 -0.186987 2.751004 2.043537 -0.210101 0.881314 0.314081 5.181898 -1.262387 7.714977 2.379160 0.000000 0.000000 0.000000 0.000000 0.000000 0.000000 0.000000 0.000000 0.000000 1.017814 -3.758633 21.178243 -66.257814 -44.789618 -66.873986 -0.000005 -37.199990 0.000002 -66.627546 -13.407499 -9.490678 22.601002 -28.107323 -14.151477 29.406850 28.726485 -29.411771 0.000002 0.000004 0.000001 0.797675 3.221940 -27.804729 0.799587 3.225531 -27.838613 -0.000000 -0.000001 -0.000004 0.796768 3.220237 -27.788696 0.800490 3.227233 -27.854649 -0.000001 0.000000 -0.000002 0.797678 3.221930 -27.804730 0.799589 3.225521 -27.838620 -0.000002 0.000000 -0.000002 2.684979 6.814129 -27.459474 0.809020 -0.835561 -28.291866 0.000000 0.000000 -0.000002 -0.000002 0.000001 -0.000000 0.404732 -0.938102 -3.847634 -97.861250 65.982305 93.157210 0.000002 27.935737 -0.000000 -32.887118 -0.805159 -4.360202 40.606608 -3.110582 26.124222 -37.849480 -44.265035 -46.874963 0.000002 -0.000002 0.000000 3.635352 -6.111019 61.464469 7.728635 -6.904476 96.464449 -0.000001 0.000001 0.000002 3.635342 -6.111008 61.464456 7.728631 -6.904474 96.464456 -0.000004 -0.000001 -0.000004 3.635345 -6.110992 61.464456 7.728608 -6.904480 96.464462 -0.000003 -0.000002 0.000000 3.635337 -6.110987 61.464469 7.728654 -6.904490 96.464435 -0.000001 -0.000001 -0.000003 -0.000001 0.000001 0.000000 -0.000001 -0.000000 0.000000 -0.000001 -0.000000 0.000000 -0.000001 -0.000000 0.000000 -0.000001 -0.000000 0.000000 -0.000001 -0.000000 0.000000 -0.000001 -0.000000 0.000000 -0.000001 -0.000000 0.000000 -0.000001 -0.000000 0.000000 -0.000001 -0.000000 0.000000 -0.000000 0.000000 0.000000 -0.000000 0.000000 0.000000 -0.000000 0.000001 -0.000000 
